<svg version="1.2" xmlns="http://www.w3.org/2000/svg" viewBox="0 0 144 144" width="144" height="144">
	<title>favicon.ico</title>
	<style>
		.s0 { 
      fill: #006E33;
    } 
	</style>
	<path id="W" class="s0" aria-label="W"  d="m36.1 35.8c-8.6 0-16.1 5-16.1 11.8 0 2 0.6 2.7 1.5 2.7 3.7 0 5.9-4.8 9.4-4.8 3 0 3.9 3.7 3.9 7.7 0 8.2-7.7 31.5-7.7 36.5 0 12.2 7.2 17.6 18.5 17.6 9 0 16.3-5 22-12.3 3.4 7.3 8.3 12.3 15 12.3 24.1 0 30.6-26.2 32.3-43.6 4.6-1.6 7.5-5 7.5-9.1 0-0.9-0.6-1.7-1.3-1.7-2.2 0-3.4 1.5-5.6 2.4 0.1-1.6 0.1-3 0.1-4.2 0-9.8-3.9-16-12.7-16-7.5 0-12.6 5.9-12.6 12.9 0 7.3 5.3 15.4 15 16.6-2.7 13.5-8.7 30.7-20.1 30.7-5 0-8.5-4.6-10.9-11 6.2-12.3 9.1-26.2 9.1-33.1 0-6.1-3.6-10.3-10.3-10.3-8.9 0-12.7 5.8-12.7 14.1 0 7.5 0.8 19.6 3.8 30.2-4.6 6-10.2 10-16 10-5.1 0-6.6-3.3-6.6-6.2 0-14 6.5-31.3 6.5-38.5 0-7.2-2.4-14.7-11.9-14.7zm33.7 20.1c0-3.4 0.5-7 2.4-7 1.7 0 2.5 2.4 2.5 4.9 0 6-1.3 12.4-3.6 18.2-0.9-5.8-1.3-11.7-1.3-16.1zm32.6-8.7c0-2 0.6-3.8 2-3.8 2.1 0 2.8 4 2.8 6.2 0 1-0.1 2.9-0.4 5.2-2.6-1.5-4.4-4.2-4.4-7.6z"/>
</svg>